# xmcd CD database file
#
# Track frame offsets:
#	150
#	18647
#	33988
#	50460
#	68469
#	84598
#	104558
#	122855
#	136872
#	155048
#	178689
#
# Disc length: 2577 seconds
#
# Revision: 0
# Processed by: cddbd v1.5.2PL0 Copyright (c) Steve Scherf et al.
# Submitted via: CDex 1.70beta2
#
DISCID=920a0f0b
DTITLE=Kristin Diable - Shelter
DYEAR=2005
DGENRE=Blues
TTITLE0=Long Time Coming
TTITLE1=Black Plague and Dynamite
TTITLE2=I'm A Woman
TTITLE3=Young Love
TTITLE4=Accidents
TTITLE5=Sister Sadie
TTITLE6=Not About
TTITLE7=Resurrections
TTITLE8=Where Do You Sleep?
TTITLE9=Circumstance
TTITLE10=Redemption's Son
EXTD=YEAR: 2005
EXTT0=
EXTT1=
EXTT2=
EXTT3=
EXTT4=
EXTT5=
EXTT6=
EXTT7=
EXTT8=
EXTT9=
EXTT10=
PLAYORDER=
